<?xml version="1.0" encoding="UTF-8" standalone="no"?>
<!DOCTYPE svg PUBLIC "-//W3C//DTD SVG 1.1//EN" "http://www.w3.org/Graphics/SVG/1.1/DTD/svg11.dtd">
<svg xmlns="http://www.w3.org/2000/svg" version="1.1" viewBox="0.00 0.00 500.00 500.00" width="500.00" height="500.00">
<path fill="#3ba42d" d="
  M 185.83 261.95
  Q 186.27 265.13 183.02 265.13
  Q 166.62 265.12 150.45 264.85
  A 0.52 0.52 0.0 0 1 150.02 264.04
  L 165.84 240.51
  A 0.78 0.77 -72.6 0 0 165.21 239.30
  L 152.88 239.13
  Q 152.13 239.12 152.14 238.38
  L 152.18 230.71
  A 0.73 0.72 -0.0 0 1 152.91 229.99
  L 184.69 230.03
  Q 186.87 230.03 185.66 231.84
  L 170.49 254.49
  A 0.88 0.87 16.6 0 0 171.23 255.85
  L 183.33 255.70
  A 1.69 1.67 -74.2 0 0 184.74 254.90
  L 188.63 248.46
  Q 188.89 248.02 189.31 248.30
  C 194.65 251.77 200.54 255.42 206.88 253.54
  C 210.39 252.50 212.11 249.27 209.85 246.07
  C 207.33 242.53 197.84 239.44 194.06 236.73
  C 185.21 230.36 185.50 218.50 193.91 211.93
  C 202.43 205.28 214.03 207.35 222.70 212.48
  A 0.82 0.82 0.0 0 1 223.02 213.56
  L 218.56 222.51
  A 0.72 0.72 0.0 0 1 217.56 222.81
  C 213.70 220.57 203.81 216.82 200.75 222.17
  C 198.88 225.43 201.54 227.55 204.35 228.95
  C 210.51 232.00 215.78 234.04 220.97 238.77
  Q 221.63 239.38 221.62 238.48
  L 221.48 230.94
  Q 221.47 230.41 221.99 230.36
  L 225.58 229.97
  A 1.32 1.31 -3.2 0 0 226.75 228.67
  L 226.75 217.68
  Q 226.75 217.12 227.32 217.11
  L 238.07 216.96
  Q 238.75 216.95 238.75 217.63
  L 238.76 228.85
  A 1.15 1.15 0.0 0 0 239.91 230.00
  L 245.34 230.00
  Q 245.99 230.00 245.99 230.65
  L 246.01 235.25
  A 0.58 0.58 0.0 0 0 246.99 235.66
  C 257.31 225.80 274.14 226.71 282.37 238.76
  A 0.74 0.74 0.0 0 0 283.59 238.77
  Q 293.31 224.92 309.93 230.70
  Q 310.47 230.89 310.64 230.34
  Q 311.09 228.84 310.99 227.00
  Q 310.46 217.03 310.92 207.51
  A 1.33 1.32 1.4 0 1 312.25 206.25
  L 322.22 206.25
  Q 322.94 206.25 322.94 206.97
  L 322.96 240.88
  A 0.54 0.54 0.0 0 0 323.88 241.26
  L 334.76 230.37
  Q 335.13 230.00 335.67 230.00
  L 349.49 230.00
  A 0.57 0.57 0.0 0 1 349.89 230.98
  L 334.89 245.99
  A 1.04 1.03 -45.2 0 0 334.89 247.46
  L 351.71 264.32
  A 0.23 0.22 -24.3 0 1 351.56 264.70
  C 348.36 264.93 337.79 265.98 335.69 263.82
  Q 329.83 257.80 323.65 251.98
  A 0.36 0.36 0.0 0 0 323.04 252.24
  L 322.90 264.00
  A 0.80 0.79 -2.4 0 1 322.18 264.78
  Q 316.71 265.38 311.75 264.73
  Q 309.70 264.46 307.69 265.01
  Q 292.52 269.15 283.33 256.03
  A 0.46 0.46 0.0 0 0 282.57 256.04
  C 274.58 268.29 257.30 269.22 246.97 259.56
  A 0.42 0.42 0.0 0 0 246.27 259.96
  L 246.96 262.97
  Q 247.20 264.00 246.22 264.42
  Q 242.40 266.05 238.26 265.98
  C 223.70 265.71 227.14 249.74 226.40 240.21
  Q 226.36 239.64 225.83 239.41
  Q 224.08 238.65 222.28 239.40
  Q 221.75 239.63 222.09 240.09
  Q 226.12 245.45 224.73 251.76
  C 220.90 269.15 198.70 268.17 186.57 261.44
  A 0.51 0.50 -79.4 0 0 185.83 261.95
  Z
  M 310.45 237.23
  C 310.03 237.23 309.05 239.39 308.44 239.91
  Q 308.03 240.26 307.54 240.05
  C 290.21 232.38 290.21 262.52 307.38 255.10
  A 1.10 1.10 0.0 0 1 308.80 255.61
  L 310.06 258.03
  Q 310.63 259.13 310.78 257.90
  C 311.56 251.67 310.55 245.87 310.94 237.75
  Q 310.96 237.24 310.45 237.23
  Z
  M 240.03 254.68
  Q 241.71 255.46 243.12 254.69
  Q 243.66 254.39 243.49 253.79
  Q 241.51 246.75 244.06 239.93
  Q 244.31 239.26 243.60 239.26
  L 239.50 239.24
  Q 238.68 239.24 238.69 240.07
  L 238.90 252.93
  A 1.97 1.96 -78.0 0 0 240.03 254.68
  Z
  M 271.69 247.54
  A 8.15 8.15 0.0 0 0 263.54 239.39
  A 8.15 8.15 0.0 0 0 255.39 247.54
  A 8.15 8.15 0.0 0 0 263.54 255.69
  A 8.15 8.15 0.0 0 0 271.69 247.54
  Z"
/>
<rect fill="#020102" fill-opacity="0.996" x="-0.74" y="-4.97" transform="translate(227.73,278.00) rotate(-0.7)" width="1.48" height="9.94" rx="0.71"/>
<path fill="#020102" fill-opacity="0.996" d="
  M 270.16 282.42
  L 270.55 273.74
  Q 270.59 272.72 271.32 273.44
  L 271.55 273.67
  Q 271.93 274.05 271.62 274.49
  Q 270.98 275.42 271.69 276.31
  Q 272.00 276.70 272.00 277.19
  L 272.00 282.19
  Q 272.00 282.82 271.38 282.91
  L 270.81 283.00
  A 0.57 0.56 -3.0 0 1 270.16 282.42
  Z"
/>
<path fill="#020102" fill-opacity="0.996" d="
  M 256.26 277.04
  L 255.83 276.72
  Q 255.60 276.56 255.81 276.37
  Q 256.81 275.48 257.16 274.18
  Q 258.11 270.67 257.96 274.31
  Q 257.89 275.99 259.43 276.13
  Q 260.30 276.21 259.62 276.76
  Q 256.68 279.13 259.27 282.07
  A 0.57 0.57 0.0 0 1 258.84 283.01
  C 255.84 283.01 257.44 279.55 256.64 277.54
  Q 256.53 277.23 256.26 277.04
  Z"
/>
<path fill="#020102" fill-opacity="0.996" d="
  M 195.50 277.47
  L 195.50 277.80
  Q 195.50 278.32 195.99 278.49
  L 197.95 279.18
  Q 198.48 279.37 198.68 279.90
  C 199.99 283.34 195.54 283.68 193.75 282.16
  Q 193.19 281.69 193.84 281.33
  C 194.78 280.80 195.91 282.93 197.47 281.69
  Q 197.95 281.30 197.52 280.87
  C 196.46 279.80 192.52 279.14 194.05 276.79
  Q 195.26 274.92 197.98 276.21
  Q 200.14 277.23 197.75 277.23
  Q 197.21 277.23 196.14 276.96
  Q 195.50 276.80 195.50 277.47
  Z"
/>
<path fill="#020102" fill-opacity="0.996" d="
  M 216.38 279.36
  A 3.71 3.71 0.0 0 1 212.67 283.07
  A 3.71 3.71 0.0 0 1 208.96 279.36
  A 3.71 3.71 0.0 0 1 212.67 275.65
  A 3.71 3.71 0.0 0 1 216.38 279.36
  Z
  M 212.7069 281.8099
  A 2.42 2.24 89.6 0 0 214.9299 279.3744
  A 2.42 2.24 89.6 0 0 212.6731 276.9701
  A 2.42 2.24 89.6 0 0 210.4501 279.4056
  A 2.42 2.24 89.6 0 0 212.7069 281.8099
  Z"
/>
<path fill="#020102" fill-opacity="0.996" d="
  M 289.36 279.38
  A 3.70 3.70 0.0 0 1 285.66 283.08
  A 3.70 3.70 0.0 0 1 281.96 279.38
  A 3.70 3.70 0.0 0 1 285.66 275.68
  A 3.70 3.70 0.0 0 1 289.36 279.38
  Z
  M 285.8957 281.8221
  A 2.44 2.29 85.4 0 0 287.9826 279.2063
  A 2.44 2.29 85.4 0 0 285.5043 276.9579
  A 2.44 2.29 85.4 0 0 283.4174 279.5737
  A 2.44 2.29 85.4 0 0 285.8957 281.8221
  Z"
/>
<path fill="#020102" fill-opacity="0.996" d="
  M 302.35 275.92
  Q 304.07 275.32 305.49 276.59
  Q 305.88 276.93 305.90 277.45
  L 306.05 282.22
  A 0.70 0.70 0.0 0 1 304.73 282.57
  C 303.83 280.90 304.97 278.15 303.11 277.07
  A 1.37 1.37 0.0 0 0 301.05 278.23
  L 300.98 282.21
  Q 300.97 282.59 300.61 282.71
  C 299.26 283.15 299.73 277.83 299.85 276.44
  Q 299.89 275.97 300.37 275.99
  L 301.48 276.05
  Q 301.93 276.07 302.35 275.92
  Z"
/>
<path fill="#020102" fill-opacity="0.996" d="
  M 240.64 278.06
  Q 240.85 279.42 240.73 280.64
  A 1.07 1.06 -88.6 0 0 241.84 281.81
  C 244.72 281.67 243.99 278.25 244.05 276.39
  Q 244.06 275.99 244.45 276.00
  Q 244.62 276.00 244.78 276.00
  Q 245.01 276.00 245.05 276.22
  C 245.41 277.88 245.73 281.54 243.96 282.59
  C 238.90 285.58 239.25 278.72 238.96 276.49
  A 0.58 0.57 10.4 0 1 239.80 275.91
  Q 240.71 276.39 240.68 277.08
  Q 240.64 278.04 240.64 278.06
  Z"
/>
</svg>
