<?xml version="1.0" encoding="UTF-8" standalone="no"?>
<!DOCTYPE svg PUBLIC "-//W3C//DTD SVG 1.1//EN" "http://www.w3.org/Graphics/SVG/1.1/DTD/svg11.dtd">
<svg xmlns="http://www.w3.org/2000/svg" version="1.1" viewBox="0.00 0.00 239.00 86.00" width="239.00" height="86.00">
<path fill="#3ba42d" d="
  M 38.68 53.88
  L 51.70 53.69
  Q 52.24 53.68 52.52 53.22
  L 56.56 46.57
  Q 56.88 46.05 57.39 46.38
  C 62.47 49.65 68.24 53.25 74.47 51.65
  C 80.67 50.06 79.79 44.36 74.93 41.78
  C 69.62 38.95 62.62 36.42 58.80 31.64
  C 53.48 24.98 54.90 16.10 61.06 10.55
  C 69.27 3.15 81.88 5.28 90.72 10.48
  A 0.85 0.84 -61.3 0 1 91.04 11.59
  L 86.57 20.49
  A 0.78 0.78 0.0 0 1 85.46 20.80
  C 81.62 18.44 70.72 14.63 68.32 20.79
  C 66.53 25.38 75.16 28.54 78.42 29.85
  Q 84.10 32.14 88.98 36.75
  Q 89.63 37.37 89.62 36.47
  L 89.48 28.94
  Q 89.47 28.41 89.99 28.36
  L 93.58 27.97
  A 1.32 1.31 -3.2 0 0 94.75 26.67
  L 94.75 15.81
  Q 94.75 15.11 95.44 15.11
  L 106.12 14.99
  Q 106.75 14.98 106.75 15.61
  L 106.76 26.95
  A 1.06 1.06 0.0 0 0 107.82 28.01
  L 113.25 28.00
  Q 114.00 27.99 114.00 28.75
  L 114.00 33.52
  A 0.44 0.44 0.0 0 0 114.75 33.84
  C 125.00 23.92 141.91 24.60 150.22 36.59
  A 0.93 0.93 0.0 0 0 151.75 36.58
  C 158.70 26.43 166.79 26.11 178.04 28.59
  Q 178.53 28.70 178.66 28.22
  Q 179.06 26.73 178.99 25.25
  Q 178.51 15.80 178.87 5.85
  Q 178.93 4.25 180.53 4.25
  L 189.36 4.25
  Q 190.97 4.25 190.97 5.86
  L 191.02 38.66
  A 0.61 0.61 0.0 0 0 192.06 39.10
  L 202.77 28.37
  Q 203.14 28.00 203.67 28.00
  L 217.49 28.00
  A 0.57 0.57 0.0 0 1 217.89 28.98
  L 203.25 43.62
  A 1.60 1.59 -45.1 0 0 203.25 45.87
  L 219.75 62.34
  A 0.29 0.29 0.0 0 1 219.55 62.84
  L 205.61 63.06
  Q 204.98 63.07 204.54 62.63
  L 191.77 49.97
  A 0.43 0.43 0.0 0 0 191.04 50.26
  L 190.88 62.14
  Q 190.88 62.68 190.34 62.75
  Q 184.24 63.51 178.19 62.51
  Q 177.61 62.41 177.05 62.59
  Q 160.82 67.72 151.41 54.05
  A 0.50 0.50 0.0 0 0 150.57 54.06
  C 142.58 66.48 125.32 67.00 114.93 57.59
  A 0.40 0.40 0.0 0 0 114.27 57.97
  L 114.96 60.96
  Q 115.20 61.99 114.23 62.41
  C 103.44 67.07 95.66 62.63 94.76 51.04
  Q 94.27 44.73 94.62 38.36
  Q 94.65 37.87 94.22 37.62
  Q 92.34 36.52 90.30 37.38
  Q 89.78 37.61 90.12 38.06
  Q 93.91 43.17 92.68 49.50
  C 89.32 66.78 67.22 66.38 55.14 59.71
  A 0.89 0.89 0.0 0 0 53.83 60.37
  L 53.56 62.40
  Q 53.48 63.01 52.86 63.01
  L 18.41 62.94
  A 0.53 0.53 0.0 0 1 17.97 62.11
  L 34.00 38.24
  A 0.61 0.61 0.0 0 0 33.50 37.29
  L 20.89 37.16
  Q 20.13 37.16 20.13 36.40
  L 20.15 29.04
  A 1.07 1.06 -89.7 0 1 21.21 27.98
  L 53.22 28.04
  A 0.87 0.87 0.0 0 1 53.94 29.40
  L 38.19 52.97
  A 0.59 0.58 -73.5 0 0 38.68 53.88
  Z
  M 174.34 37.55
  C 158.27 31.75 158.43 60.40 175.65 52.97
  Q 176.14 52.76 176.51 53.16
  C 177.04 53.73 177.76 55.95 178.30 56.09
  Q 178.91 56.24 178.91 55.60
  L 178.75 35.57
  Q 178.75 35.25 178.42 35.24
  C 177.07 35.21 178.24 38.96 174.34 37.55
  Z
  M 108.09 52.71
  Q 109.68 53.40 111.10 52.74
  Q 111.69 52.48 111.51 51.86
  Q 109.47 44.78 112.06 37.93
  Q 112.31 37.26 111.60 37.26
  L 107.50 37.24
  Q 106.68 37.24 106.69 38.07
  L 106.90 50.94
  A 1.96 1.96 0.0 0 0 108.09 52.71
  Z
  M 139.69 45.54
  A 8.14 8.14 0.0 0 0 131.55 37.40
  A 8.14 8.14 0.0 0 0 123.41 45.54
  A 8.14 8.14 0.0 0 0 131.55 53.68
  A 8.14 8.14 0.0 0 0 139.69 45.54
  Z"
/>
<g fill="#010000" fill-opacity="0.996">
<rect x="-0.73" y="-4.95" transform="translate(95.73,75.98) rotate(-0.6)" width="1.46" height="9.90" rx="0.71"/>
<path d="
  M 138.47 80.65
  C 137.71 77.48 138.75 74.88 138.46 71.83
  Q 138.34 70.46 139.31 71.43
  L 139.55 71.67
  Q 139.92 72.04 139.62 72.48
  Q 138.98 73.41 139.69 74.31
  Q 140.00 74.70 140.00 75.19
  L 140.00 80.19
  Q 140.00 80.82 139.38 80.91
  L 138.95 80.98
  A 0.43 0.42 79.1 0 1 138.47 80.65
  Z"
/>
<path d="
  M 126.79 79.42
  L 127.42 80.05
  Q 128.21 80.84 127.10 80.89
  L 125.71 80.95
  Q 125.00 80.99 125.00 80.27
  L 125.00 76.17
  Q 125.00 75.59 124.55 75.24
  L 124.08 74.87
  Q 123.55 74.45 124.09 74.03
  Q 124.85 73.45 125.01 72.51
  Q 125.38 70.39 125.85 72.18
  L 126.17 73.37
  Q 126.31 73.90 126.85 73.97
  L 127.39 74.04
  Q 128.41 74.18 127.56 74.75
  Q 125.38 76.22 126.36 78.75
  Q 126.50 79.13 126.79 79.42
  Z"
/>
<path d="
  M 63.50 75.42
  Q 63.50 75.64 63.50 75.87
  Q 63.50 76.47 64.09 76.59
  C 70.33 77.86 65.04 83.65 61.54 79.83
  A 0.41 0.41 0.0 0 1 61.99 79.17
  L 64.28 80.09
  Q 64.96 80.35 65.27 79.70
  C 65.97 78.23 62.88 77.74 61.81 76.18
  A 1.51 1.50 -24.2 0 1 62.69 73.88
  C 63.08 73.78 67.98 73.86 66.49 75.14
  Q 66.24 75.37 65.90 75.30
  L 64.06 74.95
  Q 63.50 74.85 63.50 75.42
  Z"
/>
<path d="
  M 84.38 77.37
  A 3.71 3.71 0.0 0 1 80.67 81.08
  A 3.71 3.71 0.0 0 1 76.96 77.37
  A 3.71 3.71 0.0 0 1 80.67 73.66
  A 3.71 3.71 0.0 0 1 84.38 77.37
  Z
  M 83.01 77.39
  A 2.33 2.33 0.0 0 0 80.68 75.06
  A 2.33 2.33 0.0 0 0 78.35 77.39
  A 2.33 2.33 0.0 0 0 80.68 79.72
  A 2.33 2.33 0.0 0 0 83.01 77.39
  Z"
/>
<path d="
  M 157.38 77.38
  A 3.72 3.72 0.0 0 1 153.66 81.10
  A 3.72 3.72 0.0 0 1 149.94 77.38
  A 3.72 3.72 0.0 0 1 153.66 73.66
  A 3.72 3.72 0.0 0 1 157.38 77.38
  Z
  M 156.05 77.41
  A 2.35 2.35 0.0 0 0 153.70 75.06
  A 2.35 2.35 0.0 0 0 151.35 77.41
  A 2.35 2.35 0.0 0 0 153.70 79.76
  A 2.35 2.35 0.0 0 0 156.05 77.41
  Z"
/>
<path d="
  M 171.76 75.76
  C 168.86 72.33 169.00 79.27 169.00 80.14
  Q 169.00 80.61 168.56 80.73
  C 167.32 81.07 167.71 75.94 167.82 74.74
  Q 167.86 74.27 168.34 74.21
  L 172.15 73.73
  A 1.47 1.47 0.0 0 1 173.80 75.10
  L 174.08 80.40
  A 0.67 0.66 28.6 0 1 172.84 80.76
  Q 171.99 79.31 172.28 77.65
  A 2.34 2.31 30.0 0 0 171.76 75.76
  Z"
/>
<path d="
  M 109.91 79.75
  C 112.67 79.95 112.01 76.15 112.00 74.52
  Q 111.99 73.99 112.51 74.00
  Q 112.65 74.00 112.78 74.00
  Q 113.01 74.00 113.05 74.22
  C 113.63 76.92 113.84 81.71 109.48 80.98
  C 106.68 80.51 107.18 77.05 106.94 74.98
  Q 106.87 74.32 107.51 74.12
  L 107.89 74.00
  Q 108.68 73.75 108.70 74.58
  L 108.77 78.55
  A 1.23 1.22 1.5 0 0 109.91 79.75
  Z"
/>
</g>
</svg>
